#!OML:ASF H:\Terrain\Patient Classification 1\Walking\liu\liu.ASF
:FULLY-SPECIFIED
:DEGREES
81
root 9.310070 16.395700 -25.545700 4.316470 -7.997180 2.348710
lowerback -2.555435 -0.524750 -1.925170
upperback -0.785070 -0.625130 1.315090
thorax 0.693680 -0.314838 2.403870
lowerneck -11.075150 -1.994970 -5.859350
upperneck 9.628800 -2.285000 6.021100
head 5.191700 -0.782705 2.799630
rclavicle 0.000000 0.000000
rhumerus -21.864250 6.983350 -44.553501
rradius 19.999950
rwrist -11.065900
rhand -15.331400 -11.332100
rfingers 3.562510
rthumb -1.978750 -26.303600
lclavicle 0.000000 0.000000
lhumerus -13.901000 -6.063300 43.704350
lradius 12.870800
lwrist 0.544735
lhand -6.461600 -11.987550
lfingers 3.562510
lthumb 6.583600 2.794540
rfemur -10.899800 0.238774 9.029650
rtibia 31.232450
rfoot -7.898250 -6.166550
rtoes -4.978230
lfemur -8.296500 1.466545 -13.514800
ltibia 13.777100
lfoot -7.858750 4.686695
ltoes 0.427642
82
root 9.316640 16.392300 -25.434500 4.266400 -7.744790 2.390870
lowerback -2.567195 -0.569755 -1.917005
upperback -0.757475 -0.684840 1.297015
thorax 0.734850 -0.346238 2.375880
lowerneck -11.116050 -1.970885 -5.833800
upperneck 9.689250 -2.262800 6.030750
head 5.217550 -0.768405 2.805010
rclavicle -0.000000 0.000000
rhumerus -21.883650 7.008050 -44.559052
rradius 20.045349
rwrist -11.008350
rhand -15.315500 -11.270750
rfingers 3.562510
rthumb -1.963400 -26.242500
lclavicle -0.000000 0.000000
lhumerus -13.620550 -6.287650 43.613850
lradius 13.139050
lwrist 0.799760
lhand -5.556250 -11.621450
lfingers 3.562510
lthumb 7.456050 3.100190
rfemur -11.404900 0.442645 9.087250
rtibia 30.973900
rfoot -8.267100 -6.212250
rtoes -5.639500
lfemur -8.026950 1.418190 -13.564600
ltibia 13.739500
lfoot -7.929200 4.601585
ltoes -0.061042
83
root 9.323590 16.384701 -25.321100 4.101470 -7.460860 2.503740
lowerback -2.514120 -0.605500 -1.954790
upperback -0.751480 -0.731910 1.282010
thorax 0.717135 -0.369521 2.379280
lowerneck -11.177750 -1.990660 -5.837850
upperneck 9.872750 -2.283305 5.973150
head 5.296550 -0.783625 2.788100
rclavicle -0.000000 0.000000
rhumerus -21.926300 6.883300 -44.502251
rradius 20.009800
rwrist -10.864700
rhand -15.345000 -11.601500
rfingers 3.562510
rthumb -1.991880 -26.572750
lclavicle -0.000000 0.000000
lhumerus -13.401000 -6.507000 43.570202
lradius 13.439150
lwrist 0.969450
lhand -5.036950 -11.491300
lfingers 3.562510
lthumb 7.956250 3.191850
rfemur -11.832050 0.572575 9.088350
rtibia 30.686300
rfoot -8.537000 -6.296550
rtoes -5.430350
lfemur -7.690950 1.347165 -13.658050
ltibia 13.679050
lfoot -7.707750 4.640505
ltoes -0.470509
84
root 9.333510 16.368401 -25.205601 3.804390 -7.268840 2.721150
lowerback -2.450945 -0.616480 -2.032010
upperback -0.696055 -0.744200 1.259120
thorax 0.741700 -0.377517 2.398990
lowerneck -11.244900 -2.027560 -5.913250
upperneck 9.985400 -2.298445 5.925200
head 5.352500 -0.800610 2.785185
rclavicle 0.000000 -0.000000
rhumerus -21.924200 6.822550 -44.405949
rradius 19.952351
rwrist -10.867850
rhand -15.429000 -11.997600
rfingers 3.562510
rthumb -2.073020 -26.967300
lclavicle 0.000000 -0.000000
lhumerus -13.142250 -6.811550 43.581451
lradius 13.792950
lwrist 1.268005
lhand -4.992960 -11.559500
lfingers 3.562510
lthumb 7.998600 3.120250
rfemur -12.149150 0.672000 9.020600
rtibia 30.351101
rfoot -8.818350 -6.426800
rtoes -4.584415
lfemur -7.267200 1.249060 -13.815500
ltibia 13.621700
lfoot -7.720750 4.743385
ltoes -1.142225
85
root 9.341850 16.355499 -25.090401 3.764770 -7.075160 2.903220
lowerback -2.551200 -0.589485 -2.064010
upperback -0.566050 -0.701585 1.201425
thorax 0.926520 -0.363449 2.357045
lowerneck -11.454350 -2.125880 -5.940150
upperneck 9.968450 -2.399175 5.915150
head 5.400050 -0.843745 2.770210
rclavicle -0.000000 -0.000000
rhumerus -21.736851 6.722850 -44.310051
rradius 19.933550
rwrist -10.955900
rhand -15.506350 -12.040350
rfingers 3.562510
rthumb -2.147680 -27.008600
lclavicle -0.000000 -0.000000
lhumerus -12.676050 -7.214000 43.521049
lradius 14.116400
lwrist 1.602400
lhand -5.080500 -11.635950
lfingers 3.562510
lthumb 7.914300 3.050520
rfemur -12.593100 0.759410 8.958950
rtibia 29.968349
rfoot -9.037600 -6.455600
rtoes -5.812950
lfemur -6.989250 1.177445 -13.952200
ltibia 13.568450
lfoot -8.005200 4.730540
ltoes -1.752650
86
root 9.350010 16.343000 -24.973101 3.878780 -6.623000 2.948100
lowerback -2.685205 -0.617170 -2.040635
upperback -0.503425 -0.734460 1.181035
thorax 1.068840 -0.384446 2.317385
lowerneck -11.476200 -2.218435 -6.014050
upperneck 9.897100 -2.511535 5.978700
head 5.398050 -0.892370 2.786085
rclavicle 0.000000 0.000000
rhumerus -21.621550 6.610050 -44.222851
rradius 19.926701
rwrist -10.940100
rhand -15.317700 -12.189600
rfingers 3.562510
rthumb -1.965550 -27.161350
lclavicle 0.000000 0.000000
lhumerus -12.268750 -7.498300 43.473202
lradius 14.341400
lwrist 1.881970
lhand -5.149700 -11.698400
lfingers 3.562510
lthumb 7.847650 2.993320
rfemur -13.079400 0.783595 8.959150
rtibia 29.545851
rfoot -9.184050 -6.369950
rtoes -3.562915
lfemur -6.789650 1.095590 -14.006950
ltibia 13.496950
lfoot -8.269350 4.568510
ltoes -1.167600
87
root 9.359890 16.332300 -24.852301 3.718630 -6.200730 3.018020
lowerback -2.642770 -0.656245 -2.051875
upperback -0.529770 -0.788105 1.209080
thorax 1.024920 -0.409821 2.349950
lowerneck -11.258350 -2.247880 -6.177100
upperneck 9.896800 -2.527110 5.998950
head 5.364750 -0.916370 2.818085
rclavicle 0.000000 0.000000
rhumerus -21.779499 6.581950 -44.113651
rradius 19.943550
rwrist -10.901100
rhand -14.941400 -12.560300
rfingers 3.562510
rthumb -1.602125 -27.538151
lclavicle 0.000000 0.000000
lhumerus -12.120750 -7.799150 43.602100
lradius 14.534400
lwrist 2.118730
lhand -5.519500 -11.876650
lfingers 3.562510
lthumb 7.491500 2.842315
rfemur -13.397400 0.839165 8.932650
rtibia 29.087351
rfoot -9.482250 -6.410450
rtoes -3.616655
lfemur -6.421050 1.035705 -14.073500
ltibia 13.423650
lfoot -8.498500 4.445540
ltoes 0.039413
